<mxfile host="app.diagrams.net" modified="2022-02-08T22:16:15.988Z" agent="5.0 (Windows NT 10.0; Win64; x64) AppleWebKit/537.36 (KHTML, like Gecko) Chrome/98.0.4758.80 Safari/537.36 Edg/98.0.1108.43" etag="0I1y8o6W8nrAVWl3id5O" version="16.5.3" type="github">
  <diagram id="31b32b95-0358-9bc7-6ba0-a27c054ed1a7" name="Page-1">
    <mxGraphModel dx="1117" dy="634" grid="1" gridSize="10" guides="1" tooltips="1" connect="1" arrows="1" fold="1" page="1" pageScale="1" pageWidth="827" pageHeight="1169" background="none" math="0" shadow="0">
      <root>
        <mxCell id="0" />
        <mxCell id="1" parent="0" />
        <mxCell id="2" value="" style="swimlane;shadow=0;strokeColor=#4277BB;fillColor=#ffffff;fontColor=#4277BB;align=right;startSize=0;collapsible=0;strokeWidth=3;" parent="1" vertex="1">
          <mxGeometry x="270" y="80" width="1370" height="730" as="geometry" />
        </mxCell>
        <mxCell id="3" value="PUBLIC NETWORK" style="text;html=1;align=left;verticalAlign=top;fontColor=#4277BB;shadow=0;dashed=0;strokeColor=none;fillColor=none;labelBackgroundColor=none;fontStyle=1;fontSize=16;spacingLeft=5;" parent="2" vertex="1">
          <mxGeometry width="170" height="30" as="geometry" />
        </mxCell>
        <mxCell id="4" value="" style="line;strokeWidth=3;direction=south;html=1;shadow=0;labelBackgroundColor=none;fillColor=none;gradientColor=none;fontSize=12;fontColor=#4277BB;align=right;strokeColor=#4277BB;" parent="2" vertex="1">
          <mxGeometry x="170" width="13.6" height="340" as="geometry" />
        </mxCell>
        <mxCell id="5" value="PROVIDER CLOUD" style="text;html=1;align=left;verticalAlign=top;fontColor=#4277BB;shadow=0;dashed=0;strokeColor=none;fillColor=none;labelBackgroundColor=none;fontStyle=1;fontSize=16;spacingLeft=5;" parent="2" vertex="1">
          <mxGeometry x="180" width="180" height="35" as="geometry" />
        </mxCell>
        <mxCell id="16" value="" style="line;strokeWidth=3;direction=south;html=1;shadow=0;labelBackgroundColor=none;fillColor=none;gradientColor=none;fontSize=12;fontColor=#4277BB;align=right;strokeColor=#4277BB;" parent="2" vertex="1">
          <mxGeometry x="159.04" y="480" width="10.96" height="250" as="geometry" />
        </mxCell>
        <mxCell id="17" value="gith" style="swimlane;shadow=0;strokeColor=#4277BB;fillColor=#ffffff;fontColor=#4277BB;align=right;startSize=0;collapsible=0;strokeWidth=3;" parent="2" vertex="1">
          <mxGeometry x="340" y="70" width="1000" height="90" as="geometry" />
        </mxCell>
        <mxCell id="18" value="CLOUD SECURITY" style="aspect=fixed;perimeter=ellipsePerimeter;html=1;align=left;shadow=0;dashed=0;image;image=img/lib/ibm/blockchain/certificate_authority.svg;labelBackgroundColor=#ffffff;strokeColor=#666666;strokeWidth=3;fillColor=#C2952D;gradientColor=none;fontSize=12;fontColor=#4277BB;labelPosition=right;verticalLabelPosition=middle;verticalAlign=middle;" parent="17" vertex="1">
          <mxGeometry x="34" y="15" width="60" height="60" as="geometry" />
        </mxCell>
        <mxCell id="19" style="edgeStyle=orthogonalEdgeStyle;rounded=0;comic=0;html=1;entryX=0;entryY=0.25;startArrow=classic;startFill=1;endArrow=classic;endFill=1;jettySize=auto;orthogonalLoop=1;strokeColor=#4378BB;strokeWidth=2;fontFamily=Helvetica;fontSize=19;fontColor=#CC99FF;endSize=4;startSize=4;" parent="2" source="J1PjvRYnOchHbSAu9NUT-95" target="26" edge="1">
          <mxGeometry relative="1" as="geometry">
            <Array as="points">
              <mxPoint x="85" y="383" />
            </Array>
            <mxPoint x="113" y="200" as="sourcePoint" />
          </mxGeometry>
        </mxCell>
        <mxCell id="21" style="edgeStyle=orthogonalEdgeStyle;rounded=0;html=1;labelBackgroundColor=#ffffff;startArrow=classic;startFill=1;startSize=4;endArrow=classic;endFill=1;endSize=4;jettySize=auto;orthogonalLoop=1;strokeColor=#4378BB;strokeWidth=2;fontSize=19;fontColor=#CC99FF;" parent="2" source="22" target="26" edge="1">
          <mxGeometry relative="1" as="geometry">
            <Array as="points">
              <mxPoint x="85" y="396" />
            </Array>
          </mxGeometry>
        </mxCell>
        <mxCell id="22" value="DEVICES" style="aspect=fixed;perimeter=ellipsePerimeter;html=1;align=center;shadow=0;dashed=0;image;image=img/lib/ibm/users/device.svg;labelBackgroundColor=#ffffff;strokeColor=#666666;strokeWidth=3;fillColor=#C2952D;gradientColor=none;fontSize=12;fontColor=#4277BB;" parent="2" vertex="1">
          <mxGeometry x="55" y="490" width="60" height="60" as="geometry" />
        </mxCell>
        <mxCell id="25" style="edgeStyle=orthogonalEdgeStyle;rounded=0;html=1;labelBackgroundColor=#ffffff;startArrow=classic;startFill=1;startSize=4;endArrow=classic;endFill=1;endSize=4;jettySize=auto;orthogonalLoop=1;strokeColor=#4378BB;strokeWidth=2;fontSize=19;fontColor=#CC99FF;" parent="2" source="26" target="28" edge="1">
          <mxGeometry relative="1" as="geometry" />
        </mxCell>
        <mxCell id="26" value="EDGE&lt;div&gt;SERVICES&lt;/div&gt;" style="aspect=fixed;perimeter=ellipsePerimeter;html=1;align=center;shadow=0;dashed=0;image;image=img/lib/ibm/infrastructure/edge_services.svg;labelBackgroundColor=#ffffff;strokeColor=#666666;strokeWidth=3;fillColor=#C2952D;gradientColor=none;fontSize=12;fontColor=#4277BB;" parent="2" vertex="1">
          <mxGeometry x="140" y="366" width="60" height="60" as="geometry" />
        </mxCell>
        <mxCell id="27" style="edgeStyle=elbowEdgeStyle;rounded=0;html=1;labelBackgroundColor=#ffffff;startArrow=classic;startFill=1;startSize=4;endArrow=classic;endFill=1;endSize=4;jettySize=auto;orthogonalLoop=1;strokeColor=#4378BB;strokeWidth=2;fontSize=19;fontColor=#CC99FF;elbow=vertical;" parent="2" source="28" target="35" edge="1">
          <mxGeometry relative="1" as="geometry">
            <mxPoint x="380" y="396" as="targetPoint" />
            <Array as="points">
              <mxPoint x="376" y="396" />
            </Array>
          </mxGeometry>
        </mxCell>
        <mxCell id="28" value="CLOUD" style="aspect=fixed;perimeter=ellipsePerimeter;html=1;align=center;shadow=0;dashed=0;image;image=img/lib/ibm/management/api_management.svg;labelBackgroundColor=#ffffff;strokeColor=#666666;strokeWidth=3;fillColor=#C2952D;gradientColor=none;fontSize=12;fontColor=#4277BB;" parent="2" vertex="1">
          <mxGeometry x="240" y="366" width="60" height="60" as="geometry" />
        </mxCell>
        <mxCell id="35" value="" style="swimlane;shadow=0;strokeColor=#4277BB;fillColor=#ffffff;fontColor=#4277BB;align=right;startSize=0;collapsible=0;strokeWidth=3;" parent="2" vertex="1">
          <mxGeometry x="340" y="190" width="1000" height="300" as="geometry" />
        </mxCell>
        <mxCell id="52" value="CLOUD SERVICES" style="text;html=1;align=left;verticalAlign=top;fontColor=#4277BB;shadow=0;dashed=0;strokeColor=none;fillColor=none;labelBackgroundColor=none;fontStyle=0;fontSize=14;spacingLeft=5;" parent="35" vertex="1">
          <mxGeometry x="2" width="231" height="24" as="geometry" />
        </mxCell>
        <mxCell id="65" value="" style="swimlane;shadow=0;strokeColor=#4277BB;fillColor=#ffffff;fontColor=#4277BB;align=right;startSize=0;collapsible=0;strokeWidth=3;" parent="35" vertex="1">
          <mxGeometry x="27.5" y="156" width="100" height="100" as="geometry" />
        </mxCell>
        <mxCell id="66" value="CUSTOMERS" style="aspect=fixed;perimeter=ellipsePerimeter;html=1;align=center;shadow=0;dashed=0;image;image=img/lib/ibm/applications/microservice.svg;labelBackgroundColor=#ffffff;strokeColor=#666666;strokeWidth=3;fillColor=#C2952D;gradientColor=none;fontSize=12;fontColor=#4277BB;" parent="65" vertex="1">
          <mxGeometry x="9" y="10" width="82" height="60" as="geometry" />
        </mxCell>
        <mxCell id="68" value="" style="swimlane;shadow=0;strokeColor=#4277BB;fillColor=#ffffff;fontColor=#4277BB;align=right;startSize=0;collapsible=0;strokeWidth=3;" parent="35" vertex="1">
          <mxGeometry x="166" y="156" width="100" height="100" as="geometry" />
        </mxCell>
        <mxCell id="69" value="PRODUCTS" style="aspect=fixed;perimeter=ellipsePerimeter;html=1;align=center;shadow=0;dashed=0;image;image=img/lib/ibm/applications/microservice.svg;labelBackgroundColor=#ffffff;strokeColor=#666666;strokeWidth=3;fillColor=#C2952D;gradientColor=none;fontSize=12;fontColor=#4277BB;" parent="68" vertex="1">
          <mxGeometry x="9" y="10" width="82" height="60" as="geometry" />
        </mxCell>
        <mxCell id="70" value="" style="swimlane;shadow=0;strokeColor=#4277BB;fillColor=#ffffff;fontColor=#4277BB;align=right;startSize=0;collapsible=0;strokeWidth=3;" parent="35" vertex="1">
          <mxGeometry x="870" y="156" width="100" height="100" as="geometry" />
        </mxCell>
        <mxCell id="71" value="CHARGE" style="aspect=fixed;perimeter=ellipsePerimeter;html=1;align=center;shadow=0;dashed=0;image;image=img/lib/ibm/applications/microservice.svg;labelBackgroundColor=#ffffff;strokeColor=#666666;strokeWidth=3;fillColor=#C2952D;gradientColor=none;fontSize=12;fontColor=#4277BB;" parent="70" vertex="1">
          <mxGeometry x="9" y="10" width="82" height="60" as="geometry" />
        </mxCell>
        <mxCell id="VflFZMKiH8P3R4lsnGC3-89" value="CONFIG SERVER" style="aspect=fixed;perimeter=ellipsePerimeter;html=1;align=center;shadow=0;dashed=0;image;image=img/lib/ibm/applications/microservice.svg;labelBackgroundColor=#ffffff;strokeColor=#666666;strokeWidth=3;fillColor=#C2952D;gradientColor=none;fontSize=12;fontColor=#4277BB;" parent="35" vertex="1">
          <mxGeometry x="455" y="24" width="82" height="60" as="geometry" />
        </mxCell>
        <mxCell id="VflFZMKiH8P3R4lsnGC3-94" style="edgeStyle=orthogonalEdgeStyle;rounded=0;orthogonalLoop=1;jettySize=auto;html=1;entryX=0;entryY=0.5;entryDx=0;entryDy=0;" parent="35" source="66" target="VflFZMKiH8P3R4lsnGC3-89" edge="1">
          <mxGeometry relative="1" as="geometry">
            <Array as="points">
              <mxPoint x="77" y="54" />
            </Array>
          </mxGeometry>
        </mxCell>
        <mxCell id="VflFZMKiH8P3R4lsnGC3-97" value="" style="swimlane;shadow=0;strokeColor=#4277BB;fillColor=#ffffff;fontColor=#4277BB;align=right;startSize=0;collapsible=0;strokeWidth=3;" parent="35" vertex="1">
          <mxGeometry x="306" y="156" width="100" height="100" as="geometry" />
        </mxCell>
        <mxCell id="VflFZMKiH8P3R4lsnGC3-98" value="BALANCE&lt;br&gt;INQUIRY" style="aspect=fixed;perimeter=ellipsePerimeter;html=1;align=center;shadow=0;dashed=0;image;image=img/lib/ibm/applications/microservice.svg;labelBackgroundColor=#ffffff;strokeColor=#666666;strokeWidth=3;fillColor=#C2952D;gradientColor=none;fontSize=12;fontColor=#4277BB;" parent="VflFZMKiH8P3R4lsnGC3-97" vertex="1">
          <mxGeometry x="9" y="10" width="82" height="60" as="geometry" />
        </mxCell>
        <mxCell id="VflFZMKiH8P3R4lsnGC3-103" value="" style="swimlane;shadow=0;strokeColor=#4277BB;fillColor=#ffffff;fontColor=#4277BB;align=right;startSize=0;collapsible=0;strokeWidth=3;" parent="35" vertex="1">
          <mxGeometry x="726" y="156" width="100" height="100" as="geometry" />
        </mxCell>
        <mxCell id="VflFZMKiH8P3R4lsnGC3-104" value="WITHDRAW AND&lt;br&gt;DEPOSIT MONEY" style="aspect=fixed;perimeter=ellipsePerimeter;html=1;align=center;shadow=0;dashed=0;image;image=img/lib/ibm/applications/microservice.svg;labelBackgroundColor=#ffffff;strokeColor=#666666;strokeWidth=3;fillColor=#C2952D;gradientColor=none;fontSize=12;fontColor=#4277BB;" parent="VflFZMKiH8P3R4lsnGC3-103" vertex="1">
          <mxGeometry x="9" y="10" width="82" height="60" as="geometry" />
        </mxCell>
        <mxCell id="OKRnswgm8-DPNFsYrAYW-100" style="edgeStyle=orthogonalEdgeStyle;rounded=0;orthogonalLoop=1;jettySize=auto;html=1;exitX=0.5;exitY=0;exitDx=0;exitDy=0;entryX=0;entryY=0.5;entryDx=0;entryDy=0;" edge="1" parent="35" source="69" target="VflFZMKiH8P3R4lsnGC3-89">
          <mxGeometry relative="1" as="geometry" />
        </mxCell>
        <mxCell id="OKRnswgm8-DPNFsYrAYW-102" style="edgeStyle=orthogonalEdgeStyle;rounded=0;orthogonalLoop=1;jettySize=auto;html=1;exitX=0.5;exitY=0;exitDx=0;exitDy=0;entryX=0;entryY=0.5;entryDx=0;entryDy=0;" edge="1" parent="35" source="VflFZMKiH8P3R4lsnGC3-98" target="VflFZMKiH8P3R4lsnGC3-89">
          <mxGeometry relative="1" as="geometry" />
        </mxCell>
        <mxCell id="OKRnswgm8-DPNFsYrAYW-104" style="edgeStyle=orthogonalEdgeStyle;rounded=0;orthogonalLoop=1;jettySize=auto;html=1;exitX=0.5;exitY=0;exitDx=0;exitDy=0;entryX=1;entryY=0.5;entryDx=0;entryDy=0;" edge="1" parent="35" source="VflFZMKiH8P3R4lsnGC3-104" target="VflFZMKiH8P3R4lsnGC3-89">
          <mxGeometry relative="1" as="geometry" />
        </mxCell>
        <mxCell id="OKRnswgm8-DPNFsYrAYW-106" style="edgeStyle=orthogonalEdgeStyle;rounded=0;orthogonalLoop=1;jettySize=auto;html=1;exitX=0.5;exitY=0;exitDx=0;exitDy=0;entryX=1;entryY=0.5;entryDx=0;entryDy=0;" edge="1" parent="35" source="71" target="VflFZMKiH8P3R4lsnGC3-89">
          <mxGeometry relative="1" as="geometry" />
        </mxCell>
        <mxCell id="55" value="" style="swimlane;shadow=0;strokeColor=#4277BB;fillColor=#ffffff;fontColor=#4277BB;align=right;startSize=0;collapsible=0;strokeWidth=3;" parent="2" vertex="1">
          <mxGeometry x="340" y="510" width="1000" height="164" as="geometry" />
        </mxCell>
        <mxCell id="60" value="DATA" style="text;html=1;align=left;verticalAlign=top;fontColor=#4277BB;shadow=0;dashed=0;strokeColor=none;fillColor=none;labelBackgroundColor=none;fontStyle=0;fontSize=14;spacingLeft=5;" parent="55" vertex="1">
          <mxGeometry x="1" width="231" height="24" as="geometry" />
        </mxCell>
        <mxCell id="J1PjvRYnOchHbSAu9NUT-98" value="C_CUSTOMERS" style="aspect=fixed;perimeter=ellipsePerimeter;html=1;align=center;shadow=0;dashed=0;fontColor=#4277BB;labelBackgroundColor=#ffffff;fontSize=12;spacingTop=3;image;image=img/lib/ibm/data/data_services.svg;" parent="55" vertex="1">
          <mxGeometry x="47" y="50" width="60" height="60" as="geometry" />
        </mxCell>
        <mxCell id="J1PjvRYnOchHbSAu9NUT-100" value="C_PRODUCTS" style="aspect=fixed;perimeter=ellipsePerimeter;html=1;align=center;shadow=0;dashed=0;fontColor=#4277BB;labelBackgroundColor=#ffffff;fontSize=12;spacingTop=3;image;image=img/lib/ibm/data/data_services.svg;" parent="55" vertex="1">
          <mxGeometry x="185.5" y="50" width="60" height="60" as="geometry" />
        </mxCell>
        <mxCell id="J1PjvRYnOchHbSAu9NUT-101" value="C_CHARGE" style="aspect=fixed;perimeter=ellipsePerimeter;html=1;align=center;shadow=0;dashed=0;fontColor=#4277BB;labelBackgroundColor=#ffffff;fontSize=12;spacingTop=3;image;image=img/lib/ibm/data/data_services.svg;" parent="55" vertex="1">
          <mxGeometry x="889.5" y="52" width="60" height="60" as="geometry" />
        </mxCell>
        <mxCell id="VflFZMKiH8P3R4lsnGC3-105" value="C_BALANCE-INQUIRY" style="aspect=fixed;perimeter=ellipsePerimeter;html=1;align=center;shadow=0;dashed=0;fontColor=#4277BB;labelBackgroundColor=#ffffff;fontSize=12;spacingTop=3;image;image=img/lib/ibm/data/data_services.svg;" parent="55" vertex="1">
          <mxGeometry x="326" y="52" width="60" height="60" as="geometry" />
        </mxCell>
        <mxCell id="VflFZMKiH8P3R4lsnGC3-106" value="C_WITHDRAW-DEPOSIT" style="aspect=fixed;perimeter=ellipsePerimeter;html=1;align=center;shadow=0;dashed=0;fontColor=#4277BB;labelBackgroundColor=#ffffff;fontSize=12;spacingTop=3;image;image=img/lib/ibm/data/data_services.svg;direction=south;" parent="55" vertex="1">
          <mxGeometry x="746" y="52" width="60" height="60" as="geometry" />
        </mxCell>
        <mxCell id="OKRnswgm8-DPNFsYrAYW-87" value="" style="swimlane;shadow=0;strokeColor=#4277BB;fillColor=#ffffff;fontColor=#4277BB;align=right;startSize=0;collapsible=0;strokeWidth=3;" vertex="1" parent="55">
          <mxGeometry x="446" y="-164" width="100" height="100" as="geometry" />
        </mxCell>
        <mxCell id="OKRnswgm8-DPNFsYrAYW-88" value="MOVEMENT&lt;br&gt;INQUIRIES" style="aspect=fixed;perimeter=ellipsePerimeter;html=1;align=center;shadow=0;dashed=0;image;image=img/lib/ibm/applications/microservice.svg;labelBackgroundColor=#ffffff;strokeColor=#666666;strokeWidth=3;fillColor=#C2952D;gradientColor=none;fontSize=12;fontColor=#4277BB;" vertex="1" parent="OKRnswgm8-DPNFsYrAYW-87">
          <mxGeometry x="9" y="10" width="82" height="60" as="geometry" />
        </mxCell>
        <mxCell id="OKRnswgm8-DPNFsYrAYW-89" value="C_MOVEMENT-INQUIRIES" style="aspect=fixed;perimeter=ellipsePerimeter;html=1;align=center;shadow=0;dashed=0;fontColor=#4277BB;labelBackgroundColor=#ffffff;fontSize=12;spacingTop=3;image;image=img/lib/ibm/data/data_services.svg;" vertex="1" parent="55">
          <mxGeometry x="466" y="52" width="60" height="60" as="geometry" />
        </mxCell>
        <mxCell id="OKRnswgm8-DPNFsYrAYW-90" style="edgeStyle=orthogonalEdgeStyle;rounded=0;orthogonalLoop=1;jettySize=auto;html=1;" edge="1" parent="55" source="OKRnswgm8-DPNFsYrAYW-88" target="OKRnswgm8-DPNFsYrAYW-89">
          <mxGeometry relative="1" as="geometry" />
        </mxCell>
        <mxCell id="OKRnswgm8-DPNFsYrAYW-94" value="" style="swimlane;shadow=0;strokeColor=#4277BB;fillColor=#ffffff;fontColor=#4277BB;align=right;startSize=0;collapsible=0;strokeWidth=3;" vertex="1" parent="55">
          <mxGeometry x="586" y="-166" width="100" height="100" as="geometry" />
        </mxCell>
        <mxCell id="OKRnswgm8-DPNFsYrAYW-95" value="CREDIT&lt;br&gt;TRANSACTIONS" style="aspect=fixed;perimeter=ellipsePerimeter;html=1;align=center;shadow=0;dashed=0;image;image=img/lib/ibm/applications/microservice.svg;labelBackgroundColor=#ffffff;strokeColor=#666666;strokeWidth=3;fillColor=#C2952D;gradientColor=none;fontSize=12;fontColor=#4277BB;" vertex="1" parent="OKRnswgm8-DPNFsYrAYW-94">
          <mxGeometry x="9" y="10" width="82" height="60" as="geometry" />
        </mxCell>
        <mxCell id="OKRnswgm8-DPNFsYrAYW-96" value="C_TRANSACTIONS" style="aspect=fixed;perimeter=ellipsePerimeter;html=1;align=center;shadow=0;dashed=0;fontColor=#4277BB;labelBackgroundColor=#ffffff;fontSize=12;spacingTop=3;image;image=img/lib/ibm/data/data_services.svg;" vertex="1" parent="55">
          <mxGeometry x="605.5" y="50" width="60" height="60" as="geometry" />
        </mxCell>
        <mxCell id="OKRnswgm8-DPNFsYrAYW-97" style="edgeStyle=orthogonalEdgeStyle;rounded=0;orthogonalLoop=1;jettySize=auto;html=1;" edge="1" parent="55" source="OKRnswgm8-DPNFsYrAYW-95" target="OKRnswgm8-DPNFsYrAYW-96">
          <mxGeometry relative="1" as="geometry" />
        </mxCell>
        <mxCell id="J1PjvRYnOchHbSAu9NUT-95" value="WEB" style="aspect=fixed;perimeter=ellipsePerimeter;html=1;align=center;shadow=0;dashed=0;fontColor=#4277BB;labelBackgroundColor=#ffffff;fontSize=12;spacingTop=3;image;image=img/lib/ibm/users/browser.svg;direction=south;" parent="2" vertex="1">
          <mxGeometry x="55" y="210" width="60" height="60" as="geometry" />
        </mxCell>
        <mxCell id="VflFZMKiH8P3R4lsnGC3-86" style="edgeStyle=orthogonalEdgeStyle;rounded=0;orthogonalLoop=1;jettySize=auto;html=1;" parent="2" source="66" target="J1PjvRYnOchHbSAu9NUT-98" edge="1">
          <mxGeometry relative="1" as="geometry" />
        </mxCell>
        <mxCell id="VflFZMKiH8P3R4lsnGC3-87" style="edgeStyle=orthogonalEdgeStyle;rounded=0;orthogonalLoop=1;jettySize=auto;html=1;" parent="2" source="69" target="J1PjvRYnOchHbSAu9NUT-100" edge="1">
          <mxGeometry relative="1" as="geometry" />
        </mxCell>
        <mxCell id="VflFZMKiH8P3R4lsnGC3-88" style="edgeStyle=orthogonalEdgeStyle;rounded=0;orthogonalLoop=1;jettySize=auto;html=1;" parent="2" source="71" target="J1PjvRYnOchHbSAu9NUT-101" edge="1">
          <mxGeometry relative="1" as="geometry" />
        </mxCell>
        <mxCell id="VflFZMKiH8P3R4lsnGC3-112" style="edgeStyle=orthogonalEdgeStyle;rounded=0;orthogonalLoop=1;jettySize=auto;html=1;" parent="2" source="VflFZMKiH8P3R4lsnGC3-98" target="VflFZMKiH8P3R4lsnGC3-105" edge="1">
          <mxGeometry relative="1" as="geometry" />
        </mxCell>
        <mxCell id="VflFZMKiH8P3R4lsnGC3-113" style="edgeStyle=orthogonalEdgeStyle;rounded=0;orthogonalLoop=1;jettySize=auto;html=1;entryX=0.5;entryY=0.5;entryDx=0;entryDy=0;entryPerimeter=0;" parent="2" source="VflFZMKiH8P3R4lsnGC3-104" target="VflFZMKiH8P3R4lsnGC3-106" edge="1">
          <mxGeometry relative="1" as="geometry" />
        </mxCell>
        <mxCell id="OKRnswgm8-DPNFsYrAYW-101" style="edgeStyle=orthogonalEdgeStyle;rounded=0;orthogonalLoop=1;jettySize=auto;html=1;exitX=0.5;exitY=0;exitDx=0;exitDy=0;" edge="1" parent="2" source="OKRnswgm8-DPNFsYrAYW-88" target="VflFZMKiH8P3R4lsnGC3-89">
          <mxGeometry relative="1" as="geometry" />
        </mxCell>
        <mxCell id="OKRnswgm8-DPNFsYrAYW-103" style="edgeStyle=orthogonalEdgeStyle;rounded=0;orthogonalLoop=1;jettySize=auto;html=1;exitX=0.5;exitY=0;exitDx=0;exitDy=0;entryX=1;entryY=0.5;entryDx=0;entryDy=0;" edge="1" parent="2" source="OKRnswgm8-DPNFsYrAYW-95" target="VflFZMKiH8P3R4lsnGC3-89">
          <mxGeometry relative="1" as="geometry" />
        </mxCell>
      </root>
    </mxGraphModel>
  </diagram>
</mxfile>
